<?xml version="1.0" encoding="UTF-8"?>
<svg id="Layer_2" data-name="Layer 2" xmlns="http://www.w3.org/2000/svg" xmlns:xlink="http://www.w3.org/1999/xlink" viewBox="0 0 598.02 299.01">
  <defs>
    <style>
      .cls-1 {
        letter-spacing: 0em;
      }

      .cls-2 {
        fill: url(#linear-gradient-15);
      }

      .cls-3 {
        fill: url(#linear-gradient-13);
      }

      .cls-4 {
        fill: url(#linear-gradient-2);
      }

      .cls-5 {
        fill: url(#linear-gradient-10);
      }

      .cls-6 {
        fill: url(#linear-gradient-12);
      }

      .cls-7 {
        letter-spacing: -.01em;
      }

      .cls-8 {
        letter-spacing: 0em;
      }

      .cls-9 {
        fill: url(#linear-gradient-4);
      }

      .cls-10 {
        letter-spacing: 0em;
      }

      .cls-11 {
        fill: url(#linear-gradient-3);
      }

      .cls-12 {
        fill: url(#linear-gradient-5);
      }

      .cls-13 {
        letter-spacing: 0em;
      }

      .cls-14 {
        letter-spacing: -.02em;
      }

      .cls-15 {
        font-size: 11.73px;
      }

      .cls-15, .cls-16, .cls-17 {
        fill: #fff;
        font-family: MyriadPro-Regular, 'Myriad Pro';
      }

      .cls-18 {
        letter-spacing: .03em;
      }

      .cls-19 {
        fill: url(#linear-gradient-8);
      }

      .cls-20 {
        fill: url(#linear-gradient-14);
      }

      .cls-21 {
        letter-spacing: .02em;
      }

      .cls-16 {
        font-size: 12px;
      }

      .cls-22 {
        letter-spacing: -.02em;
      }

      .cls-23 {
        letter-spacing: 0em;
      }

      .cls-24 {
        fill: url(#linear-gradient-7);
      }

      .cls-25 {
        fill: url(#linear-gradient-9);
      }

      .cls-26 {
        letter-spacing: 0em;
      }

      .cls-27 {
        fill: url(#linear-gradient-11);
      }

      .cls-28 {
        fill: url(#linear-gradient-6);
      }

      .cls-29 {
        letter-spacing: -.01em;
      }

      .cls-30 {
        letter-spacing: 0em;
      }

      .cls-31 {
        letter-spacing: 0em;
      }

      .cls-32 {
        fill: url(#linear-gradient);
      }

      .cls-33 {
        letter-spacing: 0em;
      }

      .cls-34 {
        letter-spacing: 0em;
      }

      .cls-35 {
        letter-spacing: 0em;
      }

      .cls-17 {
        font-size: 58.31px;
      }
    </style>
    <linearGradient id="linear-gradient" x1="-.82" y1="1.67" x2="598.84" y2="297.34" gradientUnits="userSpaceOnUse">
      <stop offset="0" stop-color="#231f20"/>
      <stop offset=".49" stop-color="#141124"/>
      <stop offset="1" stop-color="#00002a"/>
    </linearGradient>
    <linearGradient id="linear-gradient-2" x1="354.31" y1="94.72" x2="588.01" y2="209.95" xlink:href="#linear-gradient"/>
    <linearGradient id="linear-gradient-3" x1="288.58" y1="116.12" x2="394.39" y2="168.29" xlink:href="#linear-gradient"/>
    <linearGradient id="linear-gradient-4" x1="293.12" y1="204.81" x2="394.23" y2="254.66" xlink:href="#linear-gradient"/>
    <linearGradient id="linear-gradient-5" x1="372.49" y1="138.44" x2="668.24" y2="284.27" xlink:href="#linear-gradient"/>
    <linearGradient id="linear-gradient-6" x1="234.43" y1="84.27" x2="-.65" y2="35.11" gradientUnits="userSpaceOnUse">
      <stop offset="0" stop-color="#4ac7ee"/>
      <stop offset="1" stop-color="#263b96"/>
    </linearGradient>
    <linearGradient id="linear-gradient-7" x1="232.91" y1="91.55" x2="-2.18" y2="42.39" xlink:href="#linear-gradient-6"/>
    <linearGradient id="linear-gradient-8" x1="230.56" y1="102.8" x2="-4.53" y2="53.65" xlink:href="#linear-gradient-6"/>
    <linearGradient id="linear-gradient-9" x1="232.12" y1="95.34" x2="-2.97" y2="46.19" xlink:href="#linear-gradient-6"/>
    <linearGradient id="linear-gradient-10" x1="231.15" y1="99.98" x2="-3.94" y2="50.83" xlink:href="#linear-gradient-6"/>
    <linearGradient id="linear-gradient-11" x1="232.67" y1="92.72" x2="-2.42" y2="43.56" xlink:href="#linear-gradient-6"/>
    <linearGradient id="linear-gradient-12" x1="231.68" y1="97.41" x2="-3.4" y2="48.25" xlink:href="#linear-gradient-6"/>
    <linearGradient id="linear-gradient-13" x1="229.81" y1="106.37" x2="-5.28" y2="57.22" xlink:href="#linear-gradient-6"/>
    <linearGradient id="linear-gradient-14" x1="235.39" y1="79.7" x2=".3" y2="30.55" xlink:href="#linear-gradient-6"/>
    <linearGradient id="linear-gradient-15" x1="236.88" y1="72.56" x2="1.79" y2="23.41" xlink:href="#linear-gradient-6"/>
  </defs>
  <g id="pulsar-ui">
    <rect class="cls-32" width="598.02" height="299.01"/>
    <g>
      <path class="cls-4" d="M501.63,30.26c35.79,0,68.99,11.82,96.39,31.99v-22.73c-27.65-19.51-60.77-30.88-96.39-30.88-96.7,0-175.1,83.73-175.1,187.01,0,24.46,4.44,47.79,12.43,69.2-4.78-16.77-7.38-34.55-7.38-52.99,0-100.3,76.13-181.6,170.04-181.6Z"/>
      <path class="cls-11" d="M290.71,224.16C290.71,119.02,351.86,30.01,436.18,0h-36.78c-78.27,36.03-133.45,122.81-133.45,224.16,0,26.13,3.68,51.28,10.47,74.85h25.08c-6.99-23.51-10.78-48.68-10.78-74.85Z"/>
      <path class="cls-9" d="M315.57,196.58c0-18.44,2.59-36.22,7.38-52.99-7.99,21.41-12.43,44.74-12.43,69.2,0,31.1,7.12,60.42,19.69,86.22h14.99c-18.68-29.16-29.62-64.43-29.62-102.43Z"/>
      <path class="cls-12" d="M598.02,265.31v-130.25c-15.65-34.34-43.27-60.58-76.65-71.69,30.02,19.33,50.94,62.12,50.94,111.93,0,67.91-38.82,122.97-86.7,122.97s-86.7-55.05-86.7-122.97c0-49.81,20.92-92.6,50.94-111.93-52.35,17.43-90.59,72.04-90.59,136.8,0,38.38,13.44,73.2,35.27,98.84h182.15c8.48-9.96,15.68-21.31,21.33-33.7Z"/>
    </g>
    <g>
      <path class="cls-28" d="M170.18,69.09c-1.05-.87-2.21-1.64-3.49-2.31-1.27-.67-2.55-1.25-3.84-1.75-1.29-.5-2.46-1.01-3.51-1.53-1.05-.52-1.91-1.18-2.57-1.97-.66-.8-1-1.75-1-2.86,0-1.71.63-2.98,1.88-3.81,1.25-.83,2.93-1.25,5.03-1.25,1.36,0,2.57.18,3.62.53,1.05.35,1.89.71,2.52,1.06.63.35,1.12.53,1.49.53.74,0,1.33-.35,1.77-1.06.44-.7.66-1.4.66-2.1s-.35-1.31-1.05-1.86c-.7-.55-1.59-.97-2.66-1.26-1.07-.29-2.15-.5-3.24-.63-1.09-.13-2.13-.19-3.13-.19-1.59,0-3.09.18-4.51.52-1.42.35-2.78.91-4.07,1.68-1.29.77-2.31,1.88-3.07,3.31-.76,1.44-1.13,3.13-1.13,5.08,0,2.45.62,4.49,1.85,6.12,1.23,1.63,2.74,2.85,4.51,3.67,1.77.82,3.53,1.58,5.28,2.28,1.75.7,3.24,1.65,4.48,2.84,1.23,1.19,1.85,2.67,1.85,4.45,0,1.93-.64,3.39-1.91,4.39-1.27,1-2.96,1.5-5.06,1.5-1.4,0-2.67-.24-3.79-.71-1.13-.47-1.96-.98-2.52-1.53-.55-.55-1.12-1.06-1.69-1.53-.57-.47-1.06-.71-1.47-.71-.66,0-1.25.35-1.77,1.05-.52.7-.77,1.4-.77,2.1,0,1.51,1.19,2.98,3.57,4.4,2.38,1.42,5.26,2.13,8.66,2.13,3.8,0,6.85-1,9.15-2.99,2.3-2,3.46-4.9,3.46-8.71,0-2-.33-3.76-1-5.28-.66-1.52-1.52-2.72-2.57-3.59Z"/>
      <path class="cls-24" d="M143.19,84.54h-14.16v-33.73c-.22-.63-.51-1.1-1.08-1.41-.57-.31-1.26-.47-2.07-.47s-1.5.16-2.07.47c-.57.31-.86.78-.44,1.41v36.62c-.42.59-.16,1.06.35,1.41.52.35,1.12.53,1.83.55h17.65c.55-.03.99-.29,1.3-.8.31-.52.47-1.12.47-1.83s-.16-1.31-.47-1.83c-.31-.52-.75-.77-1.3-.4Z"/>
      <path class="cls-19" d="M74.54,70.12c0,10.37,8.89,18.78,19.85,18.78s19.85-8.41,19.85-18.78c0-2.46-.5-4.8-1.41-6.95.54,1.68.84,3.47.84,5.32,0,10.07-8.63,18.23-19.28,18.23s-19.28-8.16-19.28-18.23c0-1.85.29-3.64.84-5.32-.91,2.15-1.41,4.49-1.41,6.95Z"/>
      <path class="cls-25" d="M96.71,42.74c-3.18,0-6.21.62-8.99,1.73,2.18-.66,4.49-1.02,6.88-1.02,13.03,0,23.59,10.56,23.59,23.59s-10.56,23.59-23.59,23.59c-2.4,0-4.71-.36-6.88-1.02,2.78,1.11,5.81,1.73,8.99,1.73,13.42,0,24.3-10.88,24.3-24.3s-10.88-24.3-24.3-24.3Z"/>
      <path class="cls-5" d="M72.3,71.26c0-13.03,10.56-23.59,23.59-23.59,2.4,0,4.71.36,6.88,1.02-2.78-1.11-5.81-1.73-8.99-1.73-13.42,0-24.3,10.88-24.3,24.3s10.88,24.3,24.3,24.3c3.18,0,6.21-.62,8.99-1.73-2.18.66-4.49,1.02-6.88,1.02-13.03,0-23.59-10.56-23.59-23.59Z"/>
      <path class="cls-27" d="M116.07,68.4c0-10.37-8.89-18.78-19.85-18.78s-19.85,8.41-19.85,18.78c0,2.46.5,4.8,1.41,6.95-.54-1.68-.84-3.47-.84-5.32,0-10.07,8.63-18.23,19.28-18.23s19.28,8.16,19.28,18.23c0,1.85-.29,3.64-.84,5.32.91-2.15,1.41-4.49,1.41-6.95Z"/>
      <path class="cls-6" d="M91.19,55.12c-5.94,1.75-10.27,7.23-10.27,13.73,0,7.91,6.41,14.33,14.33,14.33s14.33-6.41,14.33-14.33c0-6.5-4.34-11.98-10.27-13.73,3.4,1.94,5.78,6.24,5.78,11.24,0,6.82-4.4,12.35-9.83,12.35s-9.83-5.53-9.83-12.35c0-5,2.37-9.3,5.78-11.24Z"/>
      <path class="cls-3" d="M65.06,51.91c2.2,1.97,3.31,5.08,3.31,9.33v.45c0,4.24-1.14,7.36-3.42,9.35-2.28,1.99-5.31,2.99-9.09,2.99h-6.9v13.43c0,.59-.28,1.06-.83,1.41-.55.35-1.22.53-2,.53s-1.41-.17-1.98-.53c-.57-.35-.85-.82-.85-1.41v-36.62c0-.52.2-.96.61-1.33.41-.37.93-.55,1.58-.55h10.7c3.71,0,6.66.99,8.87,2.96ZM53.36,54.11c-4.09,0-7.41,3.32-7.41,7.41s3.32,7.41,7.41,7.41,7.41-3.32,7.41-7.41-3.32-7.41-7.41-7.41Z"/>
      <path class="cls-20" d="M206.58,86.4c.07.23.11.39.11.51,0,.68-.42,1.26-1.26,1.75-.84.49-1.73.73-2.67.73-1.14,0-1.84-.39-2.11-1.17l-2.23-7.72h-13.25l-2.21,7.7c-.25.8-.91,1.19-1.99,1.19-.86,0-1.67-.23-2.42-.7-.75-.47-1.13-1.02-1.13-1.67,0-.21.02-.38.05-.48l10.71-34.95c.46-1.29,1.74-1.94,3.83-1.94s3.43.6,3.89,1.81l10.68,34.94ZM192.05,62.92c-4.09,0-7.41,3.32-7.41,7.41s3.32,7.41,7.41,7.41,7.41-3.32,7.41-7.41-3.32-7.41-7.41-7.41Z"/>
      <path class="cls-2" d="M235.42,85.96c0,.73-.37,1.4-1.11,2.02-.74.62-1.52.93-2.35.93-.94,0-1.69-.56-2.26-1.69l-7.87-15.62h-5.45v15.24c0,.58-.28,1.05-.84,1.39-.56.35-1.23.52-2.02.52s-1.41-.17-1.97-.52c-.56-.34-.84-.81-.84-1.39v-35.94c0-.37.15-.94.38-1.23.38-.48.88-.72,1.5-.72h10.24c8.27,0,12.4,3.7,12.4,11.11,0,3.07-.68,5.49-2.05,7.24-1.37,1.75-3.22,2.92-5.55,3.5l7.55,14.35c.14.26.22.53.22.82ZM220.73,52.5c-4.09,0-7.41,3.32-7.41,7.41s3.32,7.41,7.41,7.41,7.41-3.32,7.41-7.41-3.32-7.41-7.41-7.41Z"/>
    </g>
    <text class="cls-15" transform="translate(42.53 116.05) scale(.97 1)"><tspan class="cls-29" x="0" y="0">C</tspan><tspan x="6.67" y="0">ompone</tspan><tspan class="cls-10" x="48.38" y="0">n</tspan><tspan class="cls-30" x="54.84" y="0">t lib</tspan><tspan class="cls-8" x="73.39" y="0">r</tspan><tspan class="cls-13" x="77.17" y="0">a</tspan><tspan class="cls-21" x="82.82" y="0">r</tspan><tspan class="cls-30" x="86.95" y="0">y </tspan><tspan class="cls-7" x="94.96" y="0">f</tspan><tspan class="cls-30" x="98.23" y="0">or the </tspan><tspan class="cls-22" x="129.74" y="0">P</tspan><tspan x="135.8" y="0">ulsar f</tspan><tspan class="cls-8" x="165.07" y="0">r</tspan><tspan class="cls-13" x="168.85" y="0">ame</tspan><tspan class="cls-35" x="190.15" y="0">w</tspan><tspan x="198.67" y="0">o</tspan><tspan class="cls-31" x="205.1" y="0">r</tspan><tspan x="208.99" y="0">k</tspan></text>
    <text class="cls-16" transform="translate(43.29 251.96)"><tspan class="cls-33" x="0" y="0">h</tspan><tspan class="cls-26" x="6.61" y="0">ttps://</tspan><tspan class="cls-23" x="36.85" y="0">g</tspan><tspan x="43.49" y="0">ithu</tspan><tspan class="cls-14" x="63.54" y="0">b</tspan><tspan x="70.08" y="0">.</tspan><tspan class="cls-1" x="72.56" y="0">c</tspan><tspan x="77.87" y="0">om/bina</tspan><tspan class="cls-18" x="120.66" y="0">r</tspan><tspan x="124.88" y="0">yjack/pulsa</tspan><tspan class="cls-34" x="181.16" y="0">r</tspan><tspan x="185.03" y="0">-ui.dev</tspan></text>
    <text class="cls-17" transform="translate(241.92 89.67)"><tspan x="0" y="0">UI</tspan></text>
  </g>
</svg>